# xmcd CD database file
#
# Track frame offsets:
#	150
#	12348
#	31954
#	45617
#	56523
#	68946
#	82582
#	99761
#	109967
#	127996
#	137184
#	144833
#
# Disc length: 2080 seconds
#
# Revision: 0
# Processed by: cddbd v1.4PL0 Copyright (c) Steve Scherf et al.
# Submitted via: CDex 1.50Beta7
#
DISCID=94081e0c
DTITLE=Sylvia Telles - Bossa, Balanço, Balada
DYEAR=2002
DGENRE=Jazz
TTITLE0=rio
TTITLE1=amor em paz
TTITLE2=você e eu
TTITLE3=ilusão à toa
TTITLE4=só quis você
TTITLE5=rua deserta
TTITLE6=sol da meia noite
TTITLE7=samba do avião
TTITLE8=insensatez
TTITLE9=bossa na praia
TTITLE10=vagamente
TTITLE11=dorme
EXTD=YEAR: 2002
EXTT0=
EXTT1=
EXTT2=
EXTT3=
EXTT4=
EXTT5=
EXTT6=
EXTT7=
EXTT8=
EXTT9=
EXTT10=
EXTT11=
PLAYORDER=
